<?xml version="1.0" encoding="UTF-8"?>
<svg id="Layer_2" xmlns="http://www.w3.org/2000/svg" xmlns:xlink="http://www.w3.org/1999/xlink" version="1.1" viewBox="0 0 263 78.2">
  <!-- Generator: Adobe Illustrator 29.3.0, SVG Export Plug-In . SVG Version: 2.1.0 Build 146)  -->
  <defs>
    <style>
      .st0 {
        fill: url(#linear-gradient2);
      }

      .st1 {
        fill: url(#linear-gradient1);
      }

      .st2 {
        fill: url(#linear-gradient3);
      }

      .st3 {
        fill: url(#linear-gradient6);
      }

      .st4 {
        fill: url(#linear-gradient5);
      }

      .st5 {
        fill: url(#linear-gradient4);
      }

      .st6 {
        fill: url(#linear-gradient);
      }

      .st7 {
        fill: #fff;
      }
    </style>
    <linearGradient id="linear-gradient" x1="24.6" y1="793.9" x2="218" y2="793.9" gradientTransform="translate(0 -764)" gradientUnits="userSpaceOnUse">
      <stop offset="0" stop-color="#6a5dff"/>
      <stop offset="1" stop-color="#ed39a5"/>
    </linearGradient>
    <linearGradient id="linear-gradient1" x1="24.6" y1="800.4" x2="218" y2="800.4" gradientTransform="translate(0 -764)" gradientUnits="userSpaceOnUse">
      <stop offset="0" stop-color="#6a5dff"/>
      <stop offset="1" stop-color="#ed39a5"/>
    </linearGradient>
    <linearGradient id="linear-gradient2" x1="24.6" y1="810.6" x2="218" y2="810.6" gradientTransform="translate(0 -764)" gradientUnits="userSpaceOnUse">
      <stop offset="0" stop-color="#6a5dff"/>
      <stop offset="1" stop-color="#ed39a5"/>
    </linearGradient>
    <linearGradient id="linear-gradient3" x1="24.6" y1="800.5" x2="218" y2="800.5" gradientTransform="translate(0 -764)" gradientUnits="userSpaceOnUse">
      <stop offset="0" stop-color="#6a5dff"/>
      <stop offset="1" stop-color="#ed39a5"/>
    </linearGradient>
    <linearGradient id="linear-gradient4" x1="-668" y1="-156.8" x2="-474.7" y2="-156.8" gradientTransform="translate(-411.1 -149.3) rotate(-180)" gradientUnits="userSpaceOnUse">
      <stop offset="0" stop-color="#6a5dff"/>
      <stop offset="1" stop-color="#ed39a5"/>
    </linearGradient>
    <linearGradient id="linear-gradient5" x1="24.6" y1="800.4" x2="218" y2="800.4" gradientTransform="translate(0 -764)" gradientUnits="userSpaceOnUse">
      <stop offset="0" stop-color="#6a5dff"/>
      <stop offset="1" stop-color="#ed39a5"/>
    </linearGradient>
    <linearGradient id="linear-gradient6" x1="24.6" y1="800.5" x2="218" y2="800.5" gradientTransform="translate(0 -764)" gradientUnits="userSpaceOnUse">
      <stop offset="0" stop-color="#6a5dff"/>
      <stop offset="1" stop-color="#ed39a5"/>
    </linearGradient>
  </defs>
  <g id="Layer_1-2">
    <g>
      <path class="st6" d="M22.8,41.8V0h14.9v42.2c0,5.6-1.7,10-5,13s-8.1,4.6-14.5,4.6c-12.1.1-18.2-5.9-18.2-17.8v-5.9h13.5v5.8c0,2,.4,3.5,1.1,4.4.7,1,1.9,1.5,3.6,1.5s2.9-.5,3.6-1.4c.7-1,1.1-2.5,1.1-4.6h-.1Z"/>
      <path class="st1" d="M63.5,59c-7,0-12.5-2.1-16.5-6.2-4-4.1-6-9.6-6-16.4s2-12.3,6.1-16.4,9.5-6.1,16.5-6.1,12.3,2.1,16.3,6.1c4,4.1,6,9.6,6,16.4s-2,12.3-6.1,16.4c-4,4.1-9.4,6.1-16.2,6.1h0ZM63.5,47.3c2.9,0,5-.9,6.3-2.6s2-4.5,2-8.3-.7-6.5-2-8.2-3.4-2.6-6.3-2.6-4.9.8-6.2,2.5-2,4.4-2,8.3.7,6.6,2,8.3,3.4,2.6,6.2,2.6h0Z"/>
      <path class="st0" d="M115.1,59.4v-5.8c-.8,1.6-2.2,2.8-4.1,3.6s-3.9,1.2-6,1.2c-5.1,0-9-1.4-11.6-4.1-2.6-2.7-3.9-6.3-3.9-10.8V15h13.9v26.3c0,3.8,1.7,5.8,5.2,5.8s3.2-.6,4.5-1.8,2-2.5,2-3.9V15h13.9v44.2c0,6-1.7,10.6-5.2,14-3.5,3.3-8.4,5-14.9,5-12.8,0-19.2-6-19.2-18h12.9c0,4,2.1,5.9,6.2,5.9s3.7-.5,4.7-1.5c1.1-1,1.6-2.8,1.6-5.3h0Z"/>
      <path class="st2" d="M147.7,57.9h-13.9v-29.9c0-7.1,5.8-12.9,12.9-12.9h1v42.9h0Z"/>
      <path class="st5" d="M133.8,0h13.9v2.1c0,7.1-5.8,12.9-12.9,12.9h-1V0Z"/>
      <path class="st4" d="M178.1,42.4h14c-.6,4.9-2.8,8.9-6.5,12-3.8,3.1-8.3,4.6-13.7,4.6s-11.1-2-14.7-5.9c-3.6-4-5.4-9.7-5.4-17.2s1.8-13,5.4-16.6c3.6-3.6,8.6-5.4,15-5.4s10.4,1.5,14,4.4c3.6,3,5.6,7,5.9,12h-14c-.3-1.5-1-2.7-2.1-3.6s-2.4-1.4-3.9-1.4c-4.4,0-6.6,3.4-6.6,10.2s.6,6.6,1.9,8.7,2.7,3.1,4.4,3.1,3.2-.4,4.4-1.3c1.2-.8,1.8-2.1,1.9-3.7h0Z"/>
      <path class="st3" d="M235.6,40h-27.7c.2,2.2,1,4.1,2.4,5.7s3.1,2.3,5,2.3,2.6-.3,3.7-.8c1.1-.5,1.7-1.2,2-1.9h14.3c-1.3,4.4-3.7,7.7-7.1,10.2-3.4,2.4-7.4,3.6-12.1,3.6-14.6,0-21.9-7.8-21.9-23.4s1.9-12,5.6-15.9,8.9-5.9,15.6-5.9,11.3,1.8,15.1,5.5c3.8,3.7,5.7,9,5.7,15.9s0,3-.3,4.6h-.3ZM208.1,31.8h13.9c-.2-2.4-.9-4.2-2-5.3s-2.7-1.7-4.9-1.7c-4.2,0-6.6,2.3-7,7Z"/>
    </g>
  </g>
  <circle class="st7" cx="253.8" cy="49.8" r="9.2"/>
</svg>