<?xml version="1.0" encoding="UTF-8"?>
<svg id="Layer_2" data-name="Layer 2" xmlns="http://www.w3.org/2000/svg" xmlns:xlink="http://www.w3.org/1999/xlink" viewBox="0 0 235.89 78.19">
  <defs>
    <style>
      .cls-1 {
        fill: url(#linear-gradient-7);
      }

      .cls-2 {
        fill: url(#linear-gradient-5);
      }

      .cls-3 {
        fill: url(#linear-gradient-6);
      }

      .cls-4 {
        fill: url(#linear-gradient-4);
      }

      .cls-5 {
        fill: url(#linear-gradient-3);
      }

      .cls-6 {
        fill: url(#linear-gradient-2);
      }

      .cls-7 {
        fill: url(#linear-gradient);
      }
    </style>
    <linearGradient id="linear-gradient" x1="24.65" y1="29.97" x2="217.96" y2="29.97" gradientUnits="userSpaceOnUse">
      <stop offset="0" stop-color="#6a5dff"/>
      <stop offset="1" stop-color="#ed39a5"/>
    </linearGradient>
    <linearGradient id="linear-gradient-2" y1="36.46" x2="217.96" y2="36.46" xlink:href="#linear-gradient"/>
    <linearGradient id="linear-gradient-3" y1="46.61" y2="46.61" xlink:href="#linear-gradient"/>
    <linearGradient id="linear-gradient-4" y1="36.46" y2="36.46" xlink:href="#linear-gradient"/>
    <linearGradient id="linear-gradient-5" x1="12.03" y1="607.19" x2="205.34" y2="607.19" gradientTransform="translate(268.92 614.71) rotate(-180)" xlink:href="#linear-gradient"/>
    <linearGradient id="linear-gradient-6" y1="36.46" y2="36.46" xlink:href="#linear-gradient"/>
    <linearGradient id="linear-gradient-7" y1="36.46" y2="36.46" xlink:href="#linear-gradient"/>
  </defs>
  <g id="Layer_1-2" data-name="Layer 1">
    <g>
      <path class="cls-7" d="M22.82,41.78V11.79C22.82,5.3,28.08.05,34.56.05h3.16v42.25c0,5.63-1.66,9.97-4.97,13.02-3.31,3.05-8.13,4.57-14.46,4.57C6.1,59.89,0,53.91,0,41.95v-5.92h7.67c3.22,0,5.84,2.61,5.84,5.84h0c0,1.97.35,3.46,1.05,4.44.7.99,1.89,1.48,3.57,1.48s2.89-.48,3.62-1.44c.73-.96,1.09-2.48,1.09-4.57Z"/>
      <path class="cls-6" d="M63.5,59.02c-6.97,0-12.47-2.06-16.51-6.19-4.04-4.12-6.05-9.58-6.05-16.38s2.03-12.33,6.1-16.42c4.06-4.09,9.55-6.14,16.46-6.14s12.28,2.05,16.29,6.14c4.01,4.09,6.01,9.57,6.01,16.42s-2.02,12.33-6.05,16.42c-4.04,4.09-9.45,6.14-16.25,6.14ZM63.5,47.35c2.9,0,5.01-.87,6.32-2.61s1.96-4.5,1.96-8.28-.67-6.52-2-8.23c-1.34-1.71-3.43-2.57-6.27-2.57s-4.92.84-6.23,2.53-1.96,4.44-1.96,8.28.65,6.61,1.96,8.32c1.31,1.71,3.38,2.57,6.23,2.57Z"/>
      <path class="cls-5" d="M115.07,59.37v-5.84c-.81,1.63-2.19,2.83-4.14,3.62-1.95.78-3.93,1.18-5.97,1.18-5.11,0-8.97-1.36-11.59-4.09-2.61-2.73-3.92-6.33-3.92-10.8V15.03h0c7.7,0,13.94,6.24,13.94,13.94v12.37c0,3.83,1.74,5.75,5.23,5.75,1.68,0,3.18-.61,4.49-1.83s1.96-2.53,1.96-3.92v-14.2c0-6.69,5.42-12.11,12.11-12.11h1.83v44.17c0,5.98-1.74,10.64-5.23,13.98-3.48,3.34-8.45,5.01-14.9,5.01-12.78,0-19.16-5.98-19.16-17.95h1.76c4.79,0,9.25,1.93,13.09,4.79,1.01.76,2.42,1.13,4.23,1.13,2.09,0,3.66-.51,4.7-1.52,1.05-1.02,1.57-2.77,1.57-5.27Z"/>
      <path class="cls-4" d="M147.74,57.89h-13.94v-29.93c0-7.14,5.79-12.93,12.93-12.93h1.01v42.86Z"/>
      <path class="cls-2" d="M133.8,0h13.94v2.1c0,7.14-5.79,12.93-12.93,12.93h-1.01V0Z"/>
      <path class="cls-3" d="M178.05,42.38h14.02c-.58,4.94-2.76,8.94-6.53,12.02-3.78,3.08-8.33,4.62-13.68,4.62-6.16,0-11.05-1.97-14.68-5.92-3.63-3.95-5.45-9.67-5.45-17.16s1.81-12.96,5.45-16.59c3.63-3.63,8.64-5.44,15.03-5.44,5.75,0,10.42,1.48,14.03,4.44,3.6,2.96,5.58,6.97,5.92,12.02h-14.03c-.29-1.51-.99-2.71-2.09-3.62-1.1-.9-2.41-1.35-3.92-1.35-4.41,0-6.62,3.4-6.62,10.19,0,3.72.62,6.61,1.87,8.67,1.25,2.06,2.71,3.09,4.4,3.09s3.19-.42,4.36-1.26c1.16-.84,1.8-2.08,1.92-3.7Z"/>
      <path class="cls-1" d="M235.63,39.95h-27.7c.17,2.21.96,4.09,2.35,5.66,1.39,1.57,3.05,2.35,4.96,2.35,1.39,0,2.63-.26,3.7-.78,1.07-.52,1.73-1.16,1.96-1.92h14.29c-1.34,4.36-3.7,7.74-7.1,10.15-3.4,2.41-7.45,3.62-12.15,3.62-14.63,0-21.95-7.78-21.95-23.35,0-6.68,1.87-11.98,5.62-15.9,3.75-3.92,8.93-5.88,15.55-5.88,6.27,0,11.29,1.84,15.07,5.53,3.77,3.69,5.66,8.99,5.66,15.9,0,1.51-.09,3.05-.26,4.62ZM208.1,31.84h13.85c-.23-2.44-.9-4.21-2-5.31-1.1-1.1-2.73-1.66-4.88-1.66-4.24,0-6.56,2.32-6.97,6.97Z"/>
    </g>
  </g>
</svg>