<?xml version="1.0" encoding="UTF-8"?>
<svg id="Layer_2" data-name="Layer 2" xmlns="http://www.w3.org/2000/svg" viewBox="0 0 168.17 279.7">
  <defs>
    <style>
      .cls-1 {
        fill: #db8a7b;
      }

      .cls-2 {
        fill: #44100b;
      }

      .cls-3 {
        fill: #e5b48c;
      }

      .cls-4 {
        fill: #491711;
      }

      .cls-5 {
        fill: #4b251d;
      }

      .cls-6 {
        fill: #5a332b;
      }

      .cls-7 {
        fill: #3a1911;
      }

      .cls-8 {
        fill: #502820;
      }

      .cls-9 {
        fill: #db8b7c;
      }

      .cls-10 {
        fill: #d2e1e9;
      }

      .cls-11 {
        fill: #e8f3f6;
      }

      .cls-12 {
        fill: #bb8e7a;
      }

      .cls-13 {
        fill: #f4cbab;
      }

      .cls-14 {
        fill: #45120e;
      }

      .cls-15 {
        fill: #b6cdd5;
      }

      .cls-16 {
        fill: #3e0c07;
      }

      .cls-17 {
        fill: #e7d6c5;
      }

      .cls-18 {
        fill: #43231c;
      }

      .cls-19 {
        fill: #fefefe;
      }

      .cls-20 {
        fill: #b5cdd5;
      }

      .cls-21 {
        fill: #e1a97b;
      }

      .cls-22 {
        fill: #f4caa5;
      }

      .cls-23 {
        fill: #e4b895;
      }

      .cls-24 {
        fill: #a33f35;
      }

      .cls-25 {
        fill: #4f2b25;
      }

      .cls-26 {
        fill: #d7dede;
      }

      .cls-27 {
        fill: #e5af88;
      }

      .cls-28 {
        fill: #dae0de;
      }

      .cls-29 {
        fill: #dfdfd9;
      }

      .cls-30 {
        fill: #e1a87a;
      }

      .cls-31 {
        fill: #e7dacc;
      }

      .cls-32 {
        fill: #f7d4b3;
      }

      .cls-33 {
        fill: #d8d9d4;
      }
    </style>
  </defs>
  <g id="Layer_1-2" data-name="Layer 1">
    <g>
      <path class="cls-8" d="M26.37,153.6c-.26-1.96-.29-2.48,0-4.47.47,1.19.47,3.34,0,4.47Z"/>
      <path class="cls-33" d="M155.19,278.58c.03.37-.02.75,0,1.12-.09,0-.19,0-.28,0,.04-.55-.06-1.14,0-1.68.27.08.26.32.28.56Z"/>
      <g>
        <g>
          <path class="cls-13" d="M125.85,190.79c1.33-2.18,2.92-4.17,4.7-6.01,0-.54-4.07-4.41-4.5-5.54-.2-.54.08-1.04.31-1.51,1.3-2.75,10.93-11.61,13.65-13.18,3.71-2.14,6.92.31,10.34,1.86l6.8,4.24,1.63-9.59c-2.18-2.73-8.14-6.5-7.79-10.4.04-.42.21-1.2.57-1.42.98-.6,8.86,4.38,10.15,5.25,2.06,1.39,3.99,3.02,5.98,4.5.26.54.33,1.13.38,1.72.47,5.97-.66,14.39-1.77,20.33-.88,4.68-.9,5.23-4.38,8.48-3.9,3.65-9.26,6.98-12.88,10.62-.22.22-.41.43-.54.7l.27.76c.89,17.81.64,37.14.39,55.55-.02,1.1-.12,2.2-.23,3.3s-.26,2.2-.42,3.29l-.29-4.96.29,4.96.36.76c.23,4.49.43,9.19.04,13.7-.02.25-.13.5-.24.75s-.27.49-.44.73c-13.32,0-26.65,0-39.96,0,.79-8.27,3.05-16.57,5.17-24.61,4.23-16.1,9.39-31.97,13.78-48.02-.6-3.16-4.43-6.39-4.11-9.68.17-1.76,1.11-3.66,1.93-5.2l.35-.77c-.5-.31-.34-.52.49-.62Z"/>
          <g>
            <path class="cls-6" d="M20.78,116.7c2.17-.5,4.3-.15,6.42-1.12,1.83,8.11,4.99,14.79,10.35,21.1,6.34,7.47,14.55,14.06,23.19,18.6l.56.66c.05,2.57-.13,5.13-.52,7.68l-.6.33c-.22-1.52-.24.46,0,1.12.14.24.26.49.35.75s.17.51.16.75c-.2,3.59-.42,7.4-1.05,10.83l-.86-.31c.31.72-.07.81-1.12.28-12.58-1.87-29.45-9.65-31.3-23.76v-4.47c.55-3.74,2.25-7.58,5.59-9.51v-.41c-6.01-6.08-8.87-14.45-11.18-22.51Z"/>
            <path class="cls-27" d="M60.74,155.28c10.34,5.43,18.57,7.26,30.05,3.37,1.14-.39,6.41-2.35,7.12-2.81.5.39.25,1.34.28,1.96-.14,1.32-.14,2.63,0,3.91.28.93.53,3.13-.23,3.84l-34.07,14.55-.91-.22c-.6-.4-3.94-2.76-4.19-2.8.87.16.51-.44.56-.97.31-3.67.76-7.37.84-11.05-.18-.38-.24-.76,0-1.12l.56-4.9v-3.77Z"/>
            <path class="cls-25" d="M60.18,163.95c0,.37,0,.75,0,1.12-.46-.29-.28-1.06-.28-1.53,0-.33-.21-1.3.28-1.26.02.56-.01,1.12,0,1.68Z"/>
            <path class="cls-13" d="M100.14,177.37s-.03.49-.45.8c-4.97,3.74-10.45,6.86-15.5,10.5-.81,1.11.3,2.06.86,2.96l-5.31,13.7-3.92-15.1c.06-.28.28-.67.21-.94-.18-.79-11.45-8.33-13.07-9.41l34.77-14.84c.7-.51.48-2.42.44-3.33.08-.24.17-.24.28,0,.4,5.23.83,10.48,1.68,15.66Z"/>
            <path class="cls-23" d="M98.46,161.71h-.28s-.27-.46-.3-.95c-.05-.86-.15-2.32.3-2.97.06,1.31.18,2.61.28,3.91Z"/>
            <g>
              <path class="cls-13" d="M115.79,67.49c-.07.11-.15.22-.25.28-.2.13-4.34-.84-4.5-1.4-1.4-.11-2.8-.2-4.19,0l-.44.57c-2.13.18-4.29.84-6.09,2.01,5.38.42,10.72,1.05,16.04,1.89l.55.56.93.63c3.25,7.34,5.94,16.02,10.11,22.86.31.51-.54.18-.7.56-.55.91-2.99,1.12-3.71.23-5.86-14.93-28.23-9.76-28.55,5.6,2.83-4.85,4.99-8.54,10.85-10.44,7.75-2.51,14.04.77,18,7.4,1.46-.67,2.85-1.48,4.17-2.42l.37.18c1.71,2.11,2.87,6.12,4.45,8.49l.86.17,1.44-17.43c.32-1.04,3.61-1.07,4.54-.99,1.12.09,2.05,1.19,2.4-.31-.32,1.42,1.34,1.79,2.14,2.62,7.05,7.31,3.7,25.16-6.89,27.86-.2.4-.48.4-.84,0-1.54,1.23-5.41.48-6.74-.78-2.06,19.8-14.59,30.14-30.46,39.98-.18.11-.4.15-.63.19s-.49.04-.73.03c.08.21.11.43,0,.63-.22.44-8.33,3.21-9.22,3.41-7.36,1.68-12.44,2.06-19.73-.38-2.76-.93-6.35-2.13-8.22-4.23-.54.02-1.1,0-1.6-.22-3.17-1.45-6.87-4.19-9.68-6.34-10.77-8.23-19.79-18.8-22.63-32.31-1.81.34-3.64.59-5.48.74l-.58-.45c-1.24-1.03-2.92-1.17-4.45-2.12-7.75-4.82-9.71-22.74-1.7-27.24,2.49-1.4,5.85-1.04,8.08.72.52.41,1.49,1.79,1.61,1.81.94.19,8.15-2.67,9.58-3.24,10.13-4.1,21.06-9.88,30.66-15.18,14.7-8.13,27.97-17.22,38.93-30.11,1.19-1.4,2.41-3.04,3.36-4.61l8.94,30.75Z"/>
              <g>
                <path class="cls-5" d="M137.31,116.42c-.17.26-.22.54-.28.84l-.56-.84c.41-.03.79.01.84,0Z"/>
                <g>
                  <path class="cls-14" d="M127.25,95.45c.3.03.52-.03.83.14.19.1.2.31.29.42-.9.72-3.74,3.09-4.85,2.77-.26-.08-2.4-3.41-2.97-4.03-6.22-6.77-17.64-4.75-22.59,2.58-.56.83-2.35,5.32-3.4,4.56-.76-.55.72-5.52,1.16-6.53,4.03-9.3,18.05-12.45,25.26-4.94.95.99,2.94,5.03,3.2,5.2.43.27,2.21-.24,3.08-.15Z"/>
                  <path class="cls-18" d="M106.85,66.37c1.39-.2,2.8-.11,4.19,0,1.1-.02,3.81.57,4.75,1.12,1.13.66.98,2.78,1.95,3.78-.06.26-.59.13-.84.14-3.37.04-8.75-1.33-12.44-1.68-1.92-.18-4.06-.2-6.01-.28,2.04-1.64,5.74-3.1,8.38-3.07Z"/>
                  <path class="cls-27" d="M87.78,110.6c1.42-.19,1.76.77,1.03,1.89-1.24,1.91-7.23,5.69-9.48,5.9s-9.41-3.8-10.44-5.78c-1.69-3.22,4.36-.89,6.01-.7,2.89.33,6.52.19,9.39-.32,1.12-.2,2.54-.87,3.5-.99Z"/>
                  <path class="cls-21" d="M108.8,98.81c.02.41-1,.49-1.29.52-.82.09-1.64-.05-2.45.07-2.56.38-4.95,1.28-7.44,1.92,2.97-3.03,7.17-3.65,11.18-2.51Z"/>
                  <path class="cls-30" d="M59.06,101.04c-3.5-1.31-5.83-1.22-9.29-1.75-.25-.04-.84-.12-.77-.49,4-1.02,7.18-.75,10.34,1.95.37.37.21.48-.28.28Z"/>
                  <path class="cls-7" d="M111.04,66.37c-1.29.02-2.85.02-4.19,0,1.48-.44,2.72-.23,4.19,0Z"/>
                  <path class="cls-3" d="M59.34,100.76c.2.17,1.04.05.84.84-.08.09-.92-.48-1.12-.56l.28-.28Z"/>
                  <g>
                    <path class="cls-14" d="M93.99,127.6c1.26.12,4.18.78,5.17-.28.55-.59.06-1.85,1.4-1.41.19.06.82,2.91,0,3.08-.46.13-.93-.83-1.11-.83-.78,0-5.09,6.96-5.73,8.1-1.03,1.73-1.89,3.14-3.46,4.42-1.03.83-2.86,2.31-4.08,1.73l-.69-.2c-3.17-5.46-13.12-6.81-17.6-2.33h-.71c-.26.12-.52.14-.79.07-.69-.18-2.46-3.43-2.84-4.25-1.64-2.38-2.76-5.15-4.75-7.27l-.08-.36c1.39-.04,2.82-.1,4.27-.2.48-.34,1.36-.19,1.4.56l.59.36c.22,2.26,2.24,2.89,4.18,3.24,4.56.82,19.34,2.03,22.46-1.26.2-.67.53-1.08,1-1.22l.14-.65c-.34-1.81.08-2.25,1.26-1.31Z"/>
                    <path class="cls-9" d="M93.99,127.6c-2.02-.2-.56.72-1.4,1.96-.5-.2-.69-.67-.57-1.42-8.83.24-17.68.29-26.56.15l-1.1-.41c-.22.09-.46-.05-.56-.28,7.24-3.85,16.08-4.86,24.09-2.99,2.06.48,4.71,1.31,6.09,2.99Z"/>
                    <path class="cls-1" d="M67.17,139.91l.96.05c4.9,3.59,11.44,4.17,17.12,2.22l.92.25c3.63-1.48,5.02-3.3,7.55-6.15-.67,1.2-1.06,2.92-2.12,4.45-4.18,6.04-10.6,8.54-17.71,6.03-4.56-1.61-9.07-6.43-10.35-11.04,1.17,1.7,2.04,2.85,3.63,4.19Z"/>
                    <path class="cls-4" d="M58.22,126.48c-.32.49-.25.93.18,1.32l-.18.36-.97.84c-.77-.31-.35-2.94-.14-3.07.37-.24.97.1,1.11.56Z"/>
                    <path class="cls-16" d="M59.34,127.6c1.25.06,2.46.16,3.63.28-.79.52-2.2.27-3.23.28-.4,0-.81.28-.97.28-.04,0-.51-.23-.56-.28-.41-.43-.75-1.53,0-1.68.07.21-.07.58.13.85.28.38.71.19.99.27Z"/>
                    <path class="cls-12" d="M63.25,127.6c.19,0,.37,0,.56,0,.25.01.51.28.56.28.53.09.5.31,0,.56-.33-.75-.74-.53-1.4-.56-1.4-.07-2.23.13-3.63-.28,1.26-.21,2.68-.27,3.91,0Z"/>
                    <path class="cls-32" d="M63.25,127.6h-3.91c-.43-.34,2.6-.3,2.95-.29.32,0,.84-.08.96.29Z"/>
                    <path class="cls-19" d="M64.37,127.88c7.01.26,14.11-.13,21.09-.29,2.38-.06,4.77.07,7.14,0-.05.63.07,1.34,0,1.96-.2,1.75-1.1,2.24-2.67,2.78-4.96,1.71-13.72,1.27-18.95.54-2.92-.41-6.48-.73-6.61-4.43,0-.19,0-.37,0-.56Z"/>
                    <path class="cls-24" d="M86.17,142.42c-6.05,2.46-13.94,1.76-19-2.52,3.77-5.38,16.73-3.65,19,2.52Z"/>
                  </g>
                  <g>
                    <path class="cls-14" d="M45.65,90.7c-3.76.3-6.53,1.79-8.93,4.62-.52.61-2.11,3.35-2.29,3.45-.92.54-4.37-2.09-5.07-2.81-.24-.24-.61-.23-.47-.79l4.72.53c4.44-13.02,23.52-12.13,28.5-.07.38.93,2.05,5.9.72,6.24-1.09.28-1.52-2.09-1.92-2.8-2.72-4.79-6.15-7.32-11.61-8.38-.97-.34-2.63-.6-3.63,0Z"/>
                    <path class="cls-2" d="M45.65,90.7l.09-.79,4.38.52c.07.47-.53.26-.84.28-1.19.06-2.45-.09-3.63,0Z"/>
                  </g>
                </g>
              </g>
            </g>
          </g>
        </g>
        <g>
          <path class="cls-10" d="M148.49,200.85c1.06,1.21,2.15,2.38,3.07,3.63,1.73,2.13,3.31,4.37,4.75,6.71,1.27,2.14,2.35,4.48,2.52,6.99.92,4.87.17,10.56-.01,15.51-.45,12.41-1.67,24.7-2.78,37.06-.29,2.49-.67,4.92-1.12,7.27.18.5.25,1.25,0,1.68-2.23,0-4.48,0-6.71,0,.49-5.29.19-10.62.28-15.94.32-19.78.41-39.85.01-59.7-.03-1.25-.67-1.85-.01-3.2Z"/>
          <path class="cls-11" d="M62.97,179.89h1.02c3.91,2.58,7.74,5.27,11.48,8.08.91.49,1.83,2.15.35,2.27-.02.27-.04.55-.11.81-.31,1.27-5.02,7.74-6.12,8.37-.24.13-.49.23-.75.32-1.6,1.89-3.6,3.54-5.09,5.51l-.74.03-8.96-13.04c-.52-1.37-1.65-2.57-2.13-3.96-.4-1.15.43-1.43-.97-1.4.94-.92.87-2.35,1.67-3.5,1.38-1.97,4.36-3.52,5.73-5.45.35-.49-.57-.2-.7-.56.42.06,1.03-.29,1.12-.28.28.13.49.06.67-.27.25-.01,4.03,2.48,3.52,3.06Z"/>
          <path class="cls-11" d="M100.98,177.37c.14.02.64.37.82.5.52.37,4.72,4.54,5.17,5.12.42.54.91,1.3,1.13,1.94.12.35.47,2.62.43,2.79,0,.03-.4.17-.52.45-1.39,3.28-4.08,7.13-6.13,10.1-.63.92-4.69,6.73-5.09,6.95-.33.18-.47.12-.71-.14-1.46-1.75-3.12-3.32-4.6-5.05l-.97-.28c-1.93-2.28-3.81-4.62-5.47-7.1v-1.01c-1.24.36-2.27-2.5-1.23-3.34l12.68-8.5c1.23-1.09,2.45-1.89,3.65-2.42.03-.02.69-.03.84,0Z"/>
          <path class="cls-28" d="M156.31,210.92v.28l-4.38-5.83c-.27-.19-.27-.73-.37-.88,1.98,1.83,3.43,4.11,4.75,6.43Z"/>
          <path class="cls-26" d="M155.19,278.58c-.13-.06-.22-.24-.28-.56.26-2.43.2-4.98,1.12-7.27-.13,1.43-.16,2.9-.28,4.33-.09,1.06-.25,2.5-.56,3.5Z"/>
          <path class="cls-31" d="M158.82,218.19c-.47-2.5-1.51-4.69-2.52-6.99v-.28c1.28,2.25,2.75,4.54,2.52,7.27Z"/>
          <path class="cls-20" d="M75.83,190.23l.61.11,3.38,13.02c1.58-3.8,3.12-7.67,4.6-11.62l.64-.11c1.75,2.78,4.28,5.89,6.43,8.39.05.71-.46.7-.84.98-1.86,1.34-8.73,5.53-10.75,5.46-3.1-.1-8.36-5.06-11.05-6.72,2.49-2.95,4.78-6.33,6.99-9.51Z"/>
          <path class="cls-22" d="M148.49,263.76l-.58-5.17c.77-8.1-.06-16.33.44-24.47l.14,29.64Z"/>
          <g>
            <path class="cls-10" d="M50.96,186.88c.84-.87,1.4-.34,1.65,1.61,3.32,5.65,6.95,11.09,10.88,16.31,1.36-1.71,2.84-3.33,4.42-4.85l.93-.22.61-.27c3.22,2.88,6.7,5.02,10.45,6.44,4.07-1.47,7.93-3.44,11.58-5.89l1.11.41,3.93,4.28c4.1-5.41,8.15-11.12,11.37-17.24l.64.25c3.4.94,6.9,1.49,10.34,2.24,1.24.08,2.5.34,3.63.84.49-.11,2.81.11,3.02.37l-.5,1.02.27.69c-1.33,2.49-2.44,5.14-.81,7.73,1.46,2.06,2.54,4.23,3.26,6.52-4.43,15.33-8.84,30.67-13.23,46.02-2.31,8.21-4.38,16.49-5.52,24.92l-.74,1.64c-34.83,0-69.68,0-104.51,0-1.55-15.01-2.86-30.05-3.36-45.15-.26-7.99-1.38-16.71,2.13-24.15,4.81-10.19,12.15-18.57,24.09-19.52,7.62-.44,16.96-3.89,24.36-4Z"/>
            <g>
              <path class="cls-17" d="M125.85,190.79c-.22.37-.67,1.08-.84,1.4l.28-.83c-.91-.33-1.87-.38-2.8-.56-.24-.08-.24-.17,0-.28,1.02.16,2.3.2,3.35.28Z"/>
              <g>
                <path class="cls-29" d="M122.5,190.51v.28c-1.23-.24-2.42-.58-3.63-.84,1.26-.25,2.51.39,3.63.56Z"/>
                <path class="cls-11" d="M60.17,246.72c.49,3.75,1.13,7.53,1.41,11.31.21,2.87.5,6.7.29,9.51s-1.01,4.58-4.09,5.14c-1.58.29-4.47.49-6.13.58-4.33.22-15.73.49-19.23-1.44-4.2-2.32-2.46-6.18-2.15-9.88.41-4.98.61-9.98,1.12-14.95l28.77-.27Z"/>
                <path class="cls-15" d="M79.46,277.46c-1.36.12-1.55.1-1.68-1.26-.64-6.78.16-15.2.29-22.08.28-15.31.79-30.56.81-45.88.09-1.3,1.51-1.94,1.7-.28.47,3.97.07,10.36,0,14.57-.18,11.43-.94,22.95-1.14,34.36-.12,6.85.11,13.72.01,20.56Z"/>
                <path class="cls-20" d="M21.33,272.43l-1.31-3.58c-1.41-6.57-2.22-13.83-.78-20.47.87-4.05,4.68-11.5,4.63-14.96-.01-.89-.22-1.74-.53-2.56-.55-1.46-1.74-2.33-2.29-3.72,2.54.97,5.32.78,7.54-.84.06.47-.06.9-.19,1.35-2.15,7.63-7.46,18.05-8.16,25.67-.57,6.2.45,12.95,1.08,19.11Z"/>
              </g>
            </g>
          </g>
        </g>
        <g>
          <path class="cls-6" d="M14.63,87.34c-.29-3.58-.84-7.18-1.11-10.77-2.13-28.11-.38-51.03,25.11-67.41C52.95-.05,81.53-1.57,97.96,1.32c5.57.98,12.66,3.29,14.2,9.42,10.73-3.05,19.25,2.46,25.54,10.66,6.82,8.89,8.35,16.04,8,27.24-.38,12.48-2.62,24.89-3.64,37.31.17,1.13-.2,1.56-1.11,1.28-.74-.65-5.01-.53-5.31.2l-1.38,16.97c-.35,1.18-1.69.92-2.2-.04-1.21-2.58-2.49-5.12-3.84-7.61l.15-.73c-.46.23-1.06.03-1.12-.56l-.13-.85c-3.6-7.04-6.77-14.28-9.52-21.72-.53-.52-.76-1.01-.69-1.47.31-1.02.53-.11.47-.11-.64.02-1.66-3.15-1.59-3.8l-.82-.81-8.3-28.54c-16.78,22.11-42.58,34.91-67.12,46.69-1.48.71-14,6.16-15.53,5.49-2.03-2.85-5.39-4.12-8.72-2.7l-.68-.28Z"/>
          <path class="cls-6" d="M136.47,116.42c.45.04.64.32.56.84-1.64,8.09-6.97,17.08-12.85,22.79,10.6,6.68,8.21,18.97,0,26.56-6.33,5.85-14.91,8.91-23.2,10.76-.26.74-.54.72-.84,0-1.88-4.82-1.93-10.48-1.68-15.66-.55-1.2-.46-2.61-.28-3.91-.81-.03-.65-1.43-.28-1.96,7.42-4.87,14.67-8.91,20.82-15.93,6.25-7.14,8.89-15.42,10.76-24.61,2.29,1,4.48,1.32,6.98,1.12Z"/>
        </g>
      </g>
    </g>
  </g>
</svg>